<svg width="110" height="110" viewBox="0 0 110 110" fill="none" xmlns="http://www.w3.org/2000/svg">
<circle cx="55" cy="55" r="55" fill="#ED63FE"/>
<path d="M11.268 43.1358C10.7313 43.2103 10.2677 43.4248 9.87714 43.7794C9.48161 44.1251 9.2035 44.5858 9.04283 45.1615C8.89184 45.7025 8.88119 46.2229 9.01088 46.7226C9.14057 47.2224 9.40294 47.6619 9.79799 48.0414C10.1861 48.4188 10.6853 48.6927 11.2957 48.8631C11.9061 49.0334 12.4786 49.0586 13.013 48.9386C13.5474 48.8186 13.9995 48.5784 14.3692 48.218C14.7389 47.8577 14.9993 47.407 15.1503 46.8659C15.2916 46.3596 15.3109 45.8752 15.2081 45.4129C15.1004 44.9417 14.8792 44.5286 14.5447 44.1736C14.2051 43.8097 13.7696 43.5349 13.2383 43.3492L12.3846 46.4081L11.7916 46.2426L12.8601 42.4137L13.3907 42.5618C14.0192 42.7746 14.55 43.1096 14.9831 43.567C15.4093 44.0223 15.6979 44.5552 15.8491 45.1656C16.0022 45.7691 15.9877 46.3968 15.8058 47.0489C15.618 47.7217 15.2916 48.2885 14.8265 48.7494C14.3545 49.2083 13.7931 49.5189 13.1422 49.6812C12.4863 49.8346 11.8011 49.8116 11.0867 49.6122C10.3722 49.4128 9.77765 49.0787 9.30292 48.6097C8.82319 48.1319 8.50372 47.5755 8.34451 46.9404C8.17836 46.3034 8.18918 45.6485 8.37695 44.9756C8.59375 44.1988 8.97768 43.5732 9.52872 43.099C10.0798 42.6247 10.7389 42.3526 11.5061 42.2826L11.268 43.1358Z" fill="white"/>
<path d="M14.1423 37.6911C13.8904 37.3767 13.7515 37.0229 13.7256 36.6298C13.703 36.2303 13.8046 35.8092 14.0304 35.3665L14.7328 35.7247L14.6396 35.9076C14.3909 36.3951 14.3229 36.8536 14.4354 37.2828C14.548 37.712 14.9122 38.0837 15.528 38.3978L18.4631 39.8945L18.1195 40.5681L12.8654 37.8887L13.2089 37.2151L14.1423 37.6911Z" fill="white"/>
<path d="M18.4813 33.7241C18.0023 33.3546 17.6558 32.9372 17.4418 32.4719C17.2264 31.9965 17.1516 31.5158 17.2173 31.0299C17.2816 30.5338 17.4788 30.0719 17.8087 29.6443C18.1518 29.1996 18.5491 28.8967 19.0007 28.7358C19.4567 28.5691 19.8994 28.5377 20.3286 28.6415L19.3023 27.8497L19.7642 27.251L24.434 30.8537L23.9721 31.4524L22.9372 30.654C23.1421 31.0486 23.2247 31.4897 23.185 31.9775C23.1439 32.4551 22.9518 32.9163 22.6087 33.3611C22.2832 33.783 21.8887 34.088 21.4252 34.2762C20.9661 34.4586 20.4793 34.506 19.9648 34.4184C19.4548 34.325 18.9602 34.0936 18.4813 33.7241ZM21.6372 29.651C21.2609 29.3607 20.8708 29.1826 20.4669 29.1166C20.0631 29.0506 19.6808 29.0922 19.3201 29.2414C18.9638 29.3849 18.6625 29.6163 18.4162 29.9356C18.161 30.2663 18.0064 30.62 17.9523 30.9967C17.8982 31.3733 17.9543 31.7486 18.1207 32.1225C18.2857 32.4863 18.562 32.8177 18.9498 33.1168C19.3318 33.4115 19.7254 33.597 20.1305 33.673C20.5344 33.739 20.9145 33.7003 21.2708 33.5568C21.6214 33.4089 21.9242 33.1695 22.1793 32.8388C22.4257 32.5195 22.573 32.1694 22.6214 31.7883C22.6742 31.4016 22.6175 31.0212 22.4512 30.6474C22.2848 30.2735 22.0135 29.9414 21.6372 29.651Z" fill="white"/>
<path d="M24.5569 24.2748C24.4451 23.8345 24.4619 23.386 24.6074 22.9292C24.7585 22.4678 25.0477 22.0604 25.475 21.707C25.8912 21.3628 26.3433 21.1524 26.8313 21.0758C27.3148 20.9937 27.7949 21.0544 28.2718 21.2581C28.7496 21.4517 29.1813 21.7815 29.5669 22.2476C29.9524 22.7137 30.1977 23.2024 30.3028 23.7136C30.4134 24.2202 30.3826 24.7083 30.2103 25.1779C30.0435 25.643 29.7548 26.0453 29.3442 26.385C28.9114 26.743 28.4565 26.9557 27.9795 27.0231C27.5036 27.0803 27.0626 27.0105 26.6567 26.8135L27.4829 27.8124L26.9085 28.2874L21.8138 22.1278L22.3881 21.6528L24.5569 24.2748ZM28.9759 22.7364C28.6638 22.3591 28.3204 22.0964 27.9456 21.9484C27.5719 21.7903 27.1977 21.7447 26.8231 21.8115C26.4485 21.8784 26.1003 22.0449 25.7784 22.3111C25.4677 22.5682 25.2438 22.8795 25.1069 23.245C24.9756 23.606 24.9498 23.9872 25.0294 24.3885C25.1091 24.7899 25.3004 25.1737 25.6033 25.54C25.9063 25.9062 26.2474 26.1661 26.6267 26.3196C27.006 26.4732 27.3853 26.5193 27.7645 26.458C28.1492 26.3921 28.497 26.2306 28.8077 25.9736C29.1296 25.7074 29.3584 25.3966 29.4944 25.0412C29.6257 24.6802 29.6488 24.3013 29.5636 23.9045C29.4793 23.4976 29.2834 23.1082 28.9759 22.7364Z" fill="white"/>
<path d="M41.0488 13.3105L40.8454 22.6618L40.1079 22.9409L40.1848 19.9089L35.8458 15.2794L36.6237 14.985L40.2844 18.9818L40.3214 13.5857L41.0488 13.3105Z" fill="white"/>
<path d="M48.7148 17.7085C48.1672 17.7956 47.6537 17.7533 47.1743 17.5816C46.7009 17.4017 46.3005 17.1081 45.9732 16.7007C45.6519 16.2851 45.4432 15.7751 45.3471 15.1705C45.251 14.566 45.2953 14.0194 45.4801 13.5306C45.6637 13.0347 45.9568 12.6308 46.3593 12.3189C46.7607 11.9999 47.2352 11.7968 47.7828 11.7097C48.3304 11.6226 48.8445 11.6685 49.325 11.8473C49.8115 12.0179 50.2154 12.3109 50.5367 12.7265C50.864 13.1339 51.0757 13.6398 51.1719 14.2443C51.2669 14.8417 51.2225 15.3884 51.0389 15.8843C50.8552 16.3802 50.5591 16.7882 50.1507 17.1083C49.7411 17.4214 49.2624 17.6215 48.7148 17.7085ZM48.6113 17.0578C48.9954 16.9967 49.3374 16.8548 49.6374 16.6321C49.9363 16.4023 50.1576 16.0973 50.3013 15.7172C50.451 15.3288 50.4852 14.8785 50.4038 14.3665C50.3223 13.8544 50.1543 13.44 49.8998 13.1231C49.6441 12.7992 49.3391 12.5779 48.9848 12.4592C48.6294 12.3334 48.2597 12.3011 47.8756 12.3622C47.4916 12.4232 47.1501 12.5687 46.8512 12.7985C46.5512 13.0212 46.3299 13.3262 46.1873 13.7135C46.0507 14.0925 46.0231 14.538 46.1045 15.0501C46.186 15.5622 46.351 15.9807 46.5995 16.3058C46.8541 16.6226 47.1555 16.8445 47.5038 16.9714C47.8581 17.0901 48.2273 17.1189 48.6113 17.0578Z" fill="white"/>
<path d="M60.2577 11.4249L59.9296 17.3137L59.1746 17.2716L59.2323 16.2363C59.0393 16.5933 58.7577 16.8589 58.3873 17.033C58.017 17.2072 57.6089 17.2818 57.1632 17.257C56.4585 17.2177 55.8953 16.9699 55.4736 16.5137C55.0522 16.0502 54.8645 15.4051 54.9106 14.5782L55.1023 11.1377L55.8465 11.1791L55.6596 14.5334C55.624 15.1733 55.7549 15.6711 56.0524 16.0266C56.3572 16.3826 56.7864 16.576 57.34 16.6069C57.908 16.6385 58.371 16.484 58.729 16.1433C59.087 15.8026 59.2854 15.2836 59.3243 14.5861L59.5027 11.3828L60.2577 11.4249Z" fill="white"/>
<path d="M65.3961 13.4183C65.6432 13.1001 65.9548 12.8826 66.3311 12.7659C66.7144 12.6509 67.1476 12.6516 67.6307 12.7681L67.4459 13.5347L67.2464 13.4866C66.7143 13.3583 66.2526 13.3989 65.8614 13.6083C65.4702 13.8177 65.1936 14.2584 65.0316 14.9305L64.2595 18.1334L63.5244 17.9562L64.9065 12.2225L65.6416 12.3997L65.3961 13.4183Z" fill="white"/>
<path d="M77.266 17.4862L75.5075 20.6982C75.3346 21.014 75.2753 21.2648 75.3296 21.4505C75.3839 21.6363 75.5626 21.8121 75.8658 21.9781L76.4722 22.3101L76.161 22.8786L75.4504 22.4896C74.9829 22.2336 74.6943 21.9361 74.5845 21.5968C74.4781 21.2512 74.5615 20.8289 74.8347 20.3299L76.5933 17.1179L75.8732 16.7236L76.1792 16.1646L76.8993 16.5588L77.61 15.2608L78.2827 15.6291L77.572 16.9271L78.9933 17.7052L78.6872 18.2643L77.266 17.4862Z" fill="white"/>
<path d="M83.1626 19.132C83.0401 19.0434 82.9667 18.9237 82.9425 18.7728C82.9182 18.622 82.9525 18.4824 83.0454 18.354C83.1382 18.2256 83.258 18.1523 83.4046 18.1339C83.5554 18.1096 83.6921 18.1418 83.8146 18.2305C83.9372 18.3191 84.0106 18.4388 84.0348 18.5896C84.0632 18.7346 84.031 18.8713 83.9382 18.9997C83.8453 19.1281 83.7235 19.2044 83.5727 19.2286C83.4218 19.2528 83.2852 19.2206 83.1626 19.132ZM82.817 20.2551L79.3607 25.0342L78.748 24.5911L82.2043 19.812L82.817 20.2551Z" fill="white"/>
<path d="M84.1965 25.015C84.6306 24.5835 85.0949 24.2946 85.5893 24.1485C86.0888 23.9973 86.5777 23.9886 87.0559 24.1224C87.5393 24.2512 87.9764 24.5123 88.3673 24.9055C88.88 25.4214 89.1737 25.9723 89.2483 26.5581C89.3279 27.149 89.1964 27.7113 88.8535 28.245L88.2824 27.6703C88.5127 27.2993 88.5928 26.91 88.5228 26.5024C88.4629 26.0949 88.2579 25.7149 87.9076 25.3624C87.6284 25.0815 87.3133 24.8921 86.9622 24.7943C86.6111 24.6965 86.2419 24.7081 85.8545 24.8291C85.4773 24.9502 85.1049 25.1934 84.7371 25.559C84.3694 25.9245 84.1212 26.298 83.9928 26.6795C83.8694 27.0661 83.8555 27.4353 83.9512 27.7869C84.0469 28.1386 84.2343 28.4549 84.5135 28.7358C84.8638 29.0882 85.24 29.2981 85.642 29.3656C86.0543 29.433 86.4492 29.3502 86.8267 29.1171L87.3978 29.6918C86.8723 30.0211 86.3118 30.1467 85.7163 30.0685C85.1207 29.9903 84.5691 29.6958 84.0615 29.1851C83.6706 28.7918 83.4097 28.3556 83.2787 27.8765C83.1529 27.3924 83.1646 26.9036 83.3138 26.4101C83.4681 25.9115 83.7623 25.4465 84.1965 25.015Z" fill="white"/>
<path d="M89.9716 36.4779L90.8271 32.988L88.6244 34.455L88.2053 33.8256L94.8583 29.3947L95.2775 30.024L91.3396 32.6467L94.8506 33.1636L95.4374 34.0447L91.4411 33.3448L90.5405 37.332L89.9716 36.4779Z" fill="white"/>
<path d="M97.0188 43.6538C96.7792 43.753 96.5935 43.8221 96.4616 43.8612L94.5888 39.3404C94.1846 39.5313 93.8733 39.7771 93.655 40.078C93.4367 40.3789 93.3116 40.7075 93.2799 41.0636C93.2548 41.417 93.3139 41.7666 93.4572 42.1126C93.6446 42.565 93.9115 42.8987 94.2579 43.1138C94.6069 43.3356 94.9884 43.4192 95.4024 43.3646L95.7083 44.1031C95.1209 44.1905 94.5666 44.085 94.0454 43.7864C93.5336 43.4918 93.1413 43.0152 92.8684 42.3565C92.6562 41.8442 92.5791 41.3383 92.6372 40.8387C92.7019 40.3364 92.8957 39.882 93.2183 39.4755C93.5504 39.0729 93.9992 38.7545 94.5647 38.5202C95.1302 38.286 95.6728 38.1937 96.1923 38.2436C96.7118 38.2934 97.1687 38.4743 97.563 38.7865C97.9573 39.0986 98.262 39.5141 98.477 40.0331C98.692 40.552 98.7663 41.0513 98.6999 41.5309C98.6363 42.0171 98.4543 42.4433 98.1539 42.8094C97.8628 43.1794 97.4845 43.4608 97.0188 43.6538ZM96.7452 42.937C97.1538 42.7755 97.4653 42.549 97.6797 42.2575C97.8969 41.9727 98.018 41.6536 98.0431 41.3002C98.0682 40.9468 98.0091 40.5971 97.8658 40.2512C97.6508 39.7322 97.3012 39.3587 96.817 39.1306C96.3327 38.9025 95.7796 38.8939 95.1577 39.1048L96.7452 42.937Z" fill="white"/>
<path d="M100.252 48.0407L96.6754 48.8273C96.3238 48.9047 96.0958 49.0248 95.9916 49.1879C95.8873 49.3509 95.8723 49.6012 95.9466 49.9388L96.0951 50.614L95.4621 50.7532L95.2881 49.962C95.1736 49.4415 95.2081 49.0284 95.3915 48.7226C95.582 48.4152 95.9551 48.2005 96.5107 48.0783L100.087 47.2917L99.9108 46.4899L100.533 46.353L100.71 47.1547L102.155 46.8369L102.32 47.5859L100.874 47.9038L101.222 49.4863L100.6 49.6232L100.252 48.0407Z" fill="white"/>
<path d="M99.0284 67.3608C99.5651 67.2862 100.029 67.0717 100.419 66.7172C100.815 66.3715 101.093 65.9108 101.254 65.3351C101.405 64.794 101.415 64.2736 101.286 63.7739C101.156 63.2741 100.893 62.8346 100.498 62.4552C100.11 62.0777 99.611 61.8038 99.0006 61.6334C98.3902 61.4631 97.8178 61.4379 97.2834 61.5579C96.749 61.6779 96.2969 61.9181 95.9272 62.2785C95.5575 62.6389 95.2971 63.0896 95.1461 63.6306C95.0048 64.1369 94.9855 64.6213 95.0883 65.0836C95.196 65.5548 95.4172 65.9679 95.7517 66.323C96.0913 66.6869 96.5267 66.9617 97.0581 67.1473L97.9118 64.0884L98.5048 64.2539L97.4363 68.0828L96.9057 67.9347C96.2772 67.7219 95.7464 67.3869 95.3133 66.9296C94.8871 66.4742 94.5984 65.9413 94.4473 65.3309C94.2942 64.7274 94.3087 64.0997 94.4906 63.4477C94.6784 62.7748 95.0048 62.208 95.4699 61.7471C95.9419 61.2882 96.5033 60.9776 97.1542 60.8153C97.8101 60.6619 98.4953 60.6849 99.2097 60.8843C99.9241 61.0837 100.519 61.4179 100.993 61.8868C101.473 62.3646 101.793 62.921 101.952 63.5561C102.118 64.1931 102.107 64.8481 101.919 65.5209C101.703 66.2978 101.319 66.9233 100.768 67.3976C100.217 67.8718 99.5575 68.1439 98.7903 68.2139L99.0284 67.3608Z" fill="white"/>
<path d="M96.1541 72.8054C96.406 73.1198 96.5449 73.4736 96.5708 73.8667C96.5933 74.2663 96.4918 74.6874 96.266 75.13L95.5636 74.7718L95.6568 74.5889C95.9054 74.1014 95.9735 73.643 95.861 73.2137C95.7484 72.7845 95.3842 72.4128 94.7683 72.0988L91.8333 70.602L92.1768 69.9284L97.431 72.6078L97.0875 73.2814L96.1541 72.8054Z" fill="white"/>
<path d="M91.8151 76.7725C92.294 77.142 92.6405 77.5593 92.8546 78.0246C93.0699 78.5 93.1448 78.9807 93.0791 79.4667C93.0147 79.9627 92.8176 80.4246 92.4877 80.8522C92.1446 81.2969 91.7472 81.5998 91.2956 81.7607C90.8396 81.9274 90.397 81.9588 89.9677 81.855L90.994 82.6468L90.5322 83.2455L85.8624 79.6428L86.3243 79.0442L87.3591 79.8425C87.1542 79.448 87.0716 79.0068 87.1114 78.519C87.1525 78.0414 87.3446 77.5802 87.6877 77.1354C88.0132 76.7135 88.4077 76.4085 88.8712 76.2203C89.3303 76.0379 89.8171 75.9905 90.3315 76.0782C90.8416 76.1715 91.3361 76.403 91.8151 76.7725ZM88.6592 80.8455C89.0355 81.1358 89.4256 81.314 89.8294 81.38C90.2333 81.4459 90.6155 81.4043 90.9762 81.2551C91.3325 81.1116 91.6338 80.8802 91.8802 80.5609C92.1353 80.2302 92.2899 79.8765 92.344 79.4999C92.3981 79.1232 92.342 78.7479 92.1757 78.3741C92.0107 78.0103 91.7343 77.6788 91.3466 77.3797C90.9646 77.085 90.571 76.8996 90.1658 76.8235C89.762 76.7575 89.3819 76.7962 89.0256 76.9398C88.675 77.0877 88.3721 77.327 88.117 77.6577C87.8707 77.977 87.7233 78.3272 87.6749 78.7082C87.6221 79.095 87.6789 79.4753 87.8452 79.8492C88.0115 80.2231 88.2828 80.5552 88.6592 80.8455Z" fill="white"/>
<path d="M85.7395 86.2217C85.8513 86.662 85.8345 87.1105 85.6889 87.5673C85.5379 88.0287 85.2487 88.4361 84.8214 88.7895C84.4052 89.1337 83.9531 89.3442 83.4651 89.4207C82.9816 89.5029 82.5015 89.4421 82.0246 89.2384C81.5467 89.0449 81.1151 88.715 80.7295 88.2489C80.344 87.7828 80.0986 87.2941 79.9936 86.7829C79.8829 86.2763 79.9138 85.7882 80.0861 85.3186C80.2528 84.8535 80.5415 84.4512 80.9522 84.1116C81.385 83.7536 81.8399 83.5409 82.3168 83.4735C82.7928 83.4162 83.2338 83.486 83.6397 83.683L82.8135 82.6842L83.3878 82.2091L88.4826 88.3687L87.9082 88.8437L85.7395 86.2217ZM81.3205 87.7601C81.6326 88.1374 81.976 88.4001 82.3508 88.5481C82.7245 88.7062 83.0987 88.7518 83.4733 88.685C83.8479 88.6181 84.1961 88.4516 84.518 88.1854C84.8287 87.9283 85.0526 87.617 85.1894 87.2515C85.3208 86.8905 85.3466 86.5094 85.2669 86.108C85.1873 85.7066 84.996 85.3228 84.693 84.9565C84.3901 84.5903 84.049 84.3304 83.6697 84.1769C83.2904 84.0233 82.9111 83.9772 82.5319 84.0385C82.1472 84.1044 81.7994 84.2659 81.4887 84.5229C81.1668 84.7891 80.9379 85.0999 80.802 85.4554C80.6707 85.8163 80.6476 86.1952 80.7328 86.592C80.8171 86.9989 81.013 87.3883 81.3205 87.7601Z" fill="white"/>
<path d="M69.2476 97.1861L69.451 87.8347L70.1885 87.5557L70.1116 90.5877L74.4506 95.2172L73.6727 95.5115L70.012 91.5147L69.975 96.9108L69.2476 97.1861Z" fill="white"/>
<path d="M61.5816 92.788C62.1292 92.7009 62.6427 92.7432 63.1221 92.9149C63.5955 93.0948 63.9959 93.3885 64.3231 93.7958C64.6444 94.2114 64.8532 94.7215 64.9493 95.326C65.0454 95.9305 65.0011 96.4772 64.8163 96.9659C64.6326 97.4618 64.3396 97.8657 63.9371 98.1776C63.5357 98.4967 63.0612 98.6997 62.5136 98.7868C61.966 98.8739 61.4519 98.828 60.9714 98.6492C60.4848 98.4787 60.0809 98.1856 59.7596 97.77C59.4324 97.3626 59.2207 96.8567 59.1245 96.2522C59.0295 95.6548 59.0739 95.1081 59.2575 94.6123C59.4412 94.1164 59.7372 93.7083 60.1457 93.3882C60.5553 93.0751 61.0339 92.8751 61.5816 92.788ZM61.685 93.4387C61.301 93.4998 60.959 93.6417 60.659 93.8644C60.3601 94.0942 60.1388 94.3992 59.995 94.7794C59.8453 95.1678 59.8112 95.618 59.8926 96.1301C59.9741 96.6421 60.142 97.0566 60.3966 97.3734C60.6523 97.6973 60.9573 97.9186 61.3116 98.0373C61.667 98.1631 62.0367 98.1954 62.4208 98.1344C62.8048 98.0733 63.1463 97.9278 63.4452 97.698C63.7452 97.4753 63.9665 97.1703 64.1091 96.7831C64.2457 96.404 64.2733 95.9585 64.1919 95.4464C64.1104 94.9344 63.9454 94.5158 63.6969 94.1907C63.4423 93.8739 63.1409 93.652 62.7926 93.5251C62.4383 93.4065 62.0691 93.3777 61.685 93.4387Z" fill="white"/>
<path d="M50.0387 99.0716L50.3668 93.1828L51.1217 93.2249L51.0641 94.2603C51.2571 93.9032 51.5387 93.6376 51.909 93.4635C52.2794 93.2894 52.6874 93.2147 53.1332 93.2396C53.8379 93.2788 54.4011 93.5266 54.8228 93.9828C55.2442 94.4463 55.4318 95.0914 55.3858 95.9183L55.1941 99.3588L54.4499 99.3174L54.6368 95.9631C54.6724 95.3232 54.5415 94.8255 54.2439 94.4699C53.9392 94.1139 53.51 93.9205 52.9564 93.8897C52.3883 93.858 51.9253 94.0125 51.5674 94.3532C51.2094 94.6939 51.011 95.213 50.9721 95.9104L50.7937 99.1137L50.0387 99.0716Z" fill="white"/>
<path d="M44.9003 97.0782C44.6532 97.3964 44.3415 97.6139 43.9653 97.7306C43.582 97.8456 43.1488 97.8449 42.6657 97.7285L42.8505 96.9619L43.05 97.01C43.5821 97.1382 44.0437 97.0976 44.435 96.8882C44.8262 96.6788 45.1028 96.2381 45.2648 95.566L46.0369 92.3631L46.772 92.5403L45.3899 98.274L44.6548 98.0968L44.9003 97.0782Z" fill="white"/>
<path d="M33.0304 93.0104L34.7889 89.7983C34.9618 89.4825 35.0211 89.2317 34.9668 89.046C34.9125 88.8603 34.7338 88.6844 34.4306 88.5184L33.8242 88.1864L34.1354 87.6179L34.846 88.007C35.3135 88.2629 35.6021 88.5605 35.7119 88.8997C35.8183 89.2453 35.7348 89.6676 35.4616 90.1666L33.7031 93.3787L34.4232 93.7729L34.1172 94.3319L33.3971 93.9377L32.6864 95.2358L32.0137 94.8675L32.7243 93.5694L31.3031 92.7913L31.6092 92.2322L33.0304 93.0104Z" fill="white"/>
<path d="M27.1337 91.3645C27.2563 91.4531 27.3297 91.5729 27.3539 91.7237C27.3781 91.8745 27.3438 92.0141 27.251 92.1425C27.1581 92.2709 27.0384 92.3443 26.8918 92.3627C26.741 92.3869 26.6043 92.3547 26.4817 92.2661C26.3592 92.1774 26.2858 92.0577 26.2616 91.9069C26.2331 91.7619 26.2653 91.6252 26.3582 91.4968C26.451 91.3684 26.5728 91.2921 26.7237 91.2679C26.8745 91.2437 27.0112 91.2759 27.1337 91.3645ZM27.4794 90.2414L30.9357 85.4623L31.5484 85.9054L28.0921 90.6845L27.4794 90.2414Z" fill="white"/>
<path d="M26.0999 85.4815C25.6657 85.913 25.2015 86.2019 24.7071 86.348C24.2076 86.4993 23.7187 86.508 23.2404 86.3741C22.7571 86.2453 22.32 85.9843 21.9291 85.591C21.4163 85.0751 21.1227 84.5242 21.0481 83.9384C20.9684 83.3475 21.1 82.7852 21.4428 82.2516L22.0139 82.8262C21.7836 83.1972 21.7035 83.5865 21.7736 83.9941C21.8334 84.4017 22.0385 84.7817 22.3888 85.1341C22.668 85.415 22.9831 85.6044 23.3342 85.7022C23.6852 85.8 24.0544 85.7884 24.4418 85.6674C24.819 85.5464 25.1915 85.3031 25.5592 84.9376C25.927 84.5721 26.1751 84.1985 26.3036 83.817C26.427 83.4304 26.4408 83.0613 26.3452 82.7096C26.2495 82.3579 26.0621 82.0417 25.7828 81.7607C25.4326 81.4083 25.0564 81.1984 24.6543 81.1309C24.2421 81.0635 23.8472 81.1463 23.4696 81.3794L22.8985 80.8048C23.424 80.4754 23.9845 80.3498 24.5801 80.428C25.1756 80.5062 25.7272 80.8007 26.2349 81.3115C26.6258 81.7048 26.8867 82.1409 27.0176 82.62C27.1434 83.1041 27.1317 83.593 26.9826 84.0864C26.8283 84.585 26.534 85.05 26.0999 85.4815Z" fill="white"/>
<path d="M20.3247 74.0187L19.4693 77.5086L21.672 76.0416L22.0911 76.6709L15.438 81.1018L15.0189 80.4725L18.9568 77.8499L15.4458 77.3329L14.859 76.4518L18.8552 77.1518L19.7559 73.1646L20.3247 74.0187Z" fill="white"/>
<path d="M13.2776 66.8427C13.5171 66.7435 13.7029 66.6744 13.8348 66.6353L15.7076 71.1561C16.1118 70.9653 16.4231 70.7194 16.6414 70.4185C16.8597 70.1176 16.9847 69.7891 17.0165 69.4329C17.0416 69.0796 16.9825 68.7299 16.8392 68.3839C16.6517 67.9315 16.3849 67.5978 16.0385 67.3827C15.6894 67.161 15.3079 67.0774 14.894 67.1319L14.5881 66.3934C15.1755 66.306 15.7298 66.4115 16.251 66.7101C16.7628 67.0047 17.1551 67.4814 17.428 68.14C17.6402 68.6523 17.7173 69.1582 17.6592 69.6578C17.5944 70.1601 17.4007 70.6145 17.0781 71.021C16.746 71.4236 16.2972 71.742 15.7317 71.9763C15.1661 72.2106 14.6236 72.3028 14.1041 72.253C13.5846 72.2032 13.1277 72.0222 12.7334 71.7101C12.339 71.3979 12.0344 70.9824 11.8194 70.4634C11.6044 69.9445 11.5301 69.4452 11.5965 68.9657C11.6601 68.4794 11.8421 68.0532 12.1425 67.6871C12.4335 67.3171 12.8119 67.0357 13.2776 66.8427ZM13.5512 67.5596C13.1426 67.721 12.8311 67.9475 12.6167 68.239C12.3995 68.5239 12.2784 68.843 12.2533 69.1963C12.2282 69.5497 12.2873 69.8994 12.4306 70.2453C12.6456 70.7643 12.9952 71.1378 13.4794 71.3659C13.9637 71.594 14.5168 71.6026 15.1387 71.3918L13.5512 67.5596Z" fill="white"/>
<path d="M10.0445 62.4558L13.6209 61.6692C13.9726 61.5919 14.2006 61.4717 14.3048 61.3087C14.409 61.1456 14.424 60.8953 14.3498 60.5577L14.2013 59.8825L14.8343 59.7433L15.0083 60.5345C15.1228 61.055 15.0883 61.4681 14.9049 61.7739C14.7144 62.0813 14.3413 62.296 13.7857 62.4183L10.2093 63.2049L10.3856 64.0067L9.76318 64.1436L9.58683 63.3418L8.1415 63.6597L7.97675 62.9106L9.42208 62.5927L9.07403 61.0102L9.69647 60.8733L10.0445 62.4558Z" fill="white"/>
<g clip-path="url(#clip0_296_153)">
<path d="M53.9395 71.546C54.2208 71.8272 54.6023 71.9852 55 71.9852C55.3977 71.9852 55.7792 71.8272 56.0605 71.546L64.546 63.0605C64.6893 62.9221 64.8035 62.7566 64.8822 62.5736C64.9608 62.3906 65.0021 62.1938 65.0039 61.9946C65.0056 61.7954 64.9677 61.5979 64.8922 61.4136C64.8168 61.2292 64.7054 61.0617 64.5646 60.9209C64.4238 60.7801 64.2563 60.6687 64.0719 60.5933C63.8876 60.5178 63.6901 60.4799 63.4909 60.4816C63.2917 60.4833 63.0949 60.5247 62.9119 60.6033C62.7289 60.682 62.5634 60.7962 62.425 60.9395L56.5 66.8645V47C56.5 46.6022 56.342 46.2206 56.0607 45.9393C55.7794 45.658 55.3978 45.5 55 45.5C54.6022 45.5 54.2206 45.658 53.9393 45.9393C53.658 46.2206 53.5 46.6022 53.5 47V66.8645L47.575 60.9395C47.2921 60.6663 46.9132 60.5151 46.5199 60.5185C46.1266 60.5219 45.7504 60.6797 45.4723 60.9578C45.1942 61.2359 45.0364 61.6121 45.033 62.0054C45.0296 62.3987 45.1808 62.7776 45.454 63.0605L53.9395 71.546Z" fill="white"/>
</g>
<defs>
<clipPath id="clip0_296_153">
<rect width="36" height="36" fill="white" transform="matrix(-1 0 0 -1 73 77)"/>
</clipPath>
</defs>
</svg>
