<svg width="85" height="84" viewBox="0 0 85 84" fill="none" xmlns="http://www.w3.org/2000/svg">
<path d="M0 22.3183C0.737451 18.4772 1.42363 14.6223 3.51767 11.2052C8.29138 3.4127 15.7566 0.423467 24.3654 0.212485C36.1035 -0.0753971 47.8594 -0.0675121 59.5975 0.216426C67.5674 0.409662 74.6599 3.03609 79.5145 9.94131C82.6378 14.3877 83.8032 19.4808 83.8821 24.7435C84.0517 36.0261 84.1325 47.3166 83.8722 58.5953C83.6632 67.6793 80.5044 75.4305 72 80.0484C68.0722 82.1819 63.7639 83.1086 59.3707 83.1579C47.7805 83.29 36.1844 83.4044 24.5981 83.1402C15.9045 82.941 8.35056 80.007 3.52164 72.1336C1.42563 68.7185 0.741422 64.8636 0.00397151 61.0206C2.79207e-05 48.1231 0 35.2197 0 22.3183ZM42.0504 8.16669C36.2928 8.16669 30.5332 8.05627 24.7776 8.19233C15.7862 8.40331 10.2573 12.6151 8.6207 20.3583C8.27366 22.0028 8.01535 23.7005 8.00746 25.3745C7.95422 36.2746 7.8083 47.1806 8.03111 58.0767C8.25195 68.9196 13.7335 74.7206 24.1939 75.1051C36.0069 75.5389 47.8416 75.5034 59.6566 75.113C68.37 74.8251 73.5479 70.6311 75.214 63.1008C75.5118 61.7561 75.7938 60.3738 75.7997 59.0074C75.8648 46.5792 76.545 34.1372 75.4231 21.7306C74.7586 14.3818 69.835 9.58244 62.5137 8.5788C55.715 7.64219 48.8709 8.30669 42.0504 8.16669Z" fill="#E5E5E5"/>
<path d="M63.7049 41.8115C63.6694 53.522 53.9524 63.1463 42.0211 63.2902C30.0523 63.4342 20.1223 53.5535 20.1578 41.5315C20.1933 29.7145 30.2771 19.83 42.0704 20.0528C54.1712 20.2835 63.7404 29.9058 63.7049 41.8115ZM55.6323 41.705C55.6442 34.2517 49.5099 28.147 41.9658 28.1075C34.471 28.0681 28.2441 34.2024 28.2323 41.638C28.2205 49.0914 34.3567 55.196 41.8988 55.2355C49.3916 55.2749 55.6185 49.1387 55.6323 41.705Z" fill="#E5E5E5"/>
<path d="M64.2964 14.3681C67.1831 14.3306 69.6261 16.7224 69.6104 19.5697C69.5946 22.3006 67.254 24.6392 64.4561 24.72C61.5772 24.8028 59.0829 22.4544 59.0316 19.617C58.9784 16.7481 61.3308 14.4056 64.2964 14.3681Z" fill="#E5E5E5"/>
</svg>
