<svg width="68" height="68" viewBox="0 0 68 68" fill="none" xmlns="http://www.w3.org/2000/svg">
<path d="M14.9679 7.48517C14.9679 11.6003 12.3493 14.9681 7.4849 14.9681C2.99513 14.9681 0.00195312 11.6003 0.00195312 7.85784C0.00195312 3.74074 2.99513 0.000244141 7.4849 0.000244141C11.9747 0.000244141 14.9679 3.37003 14.9679 7.48517Z" fill="#E5E5E5"/>
<path d="M14.9679 18.7101H0V67.3542H14.9679V18.7101Z" fill="#E5E5E5"/>
<path d="M50.89 19.4601C43.0324 19.4601 38.5426 23.9499 36.6714 26.943H36.2967L35.5475 20.582H22.0762C22.0762 24.6991 22.4508 29.5616 22.4508 35.1753V67.3549H37.4187V40.789C37.4187 39.2924 37.4187 38.1704 37.7933 37.0465C38.9153 34.428 40.7865 31.0601 44.9016 31.0601C50.1407 31.0601 52.3866 35.5499 52.3866 41.5382V67.3569H67.3544V39.667C67.3544 25.8211 60.2442 19.4601 50.89 19.4601Z" fill="#E5E5E5"/>
</svg>
