<svg width="82" height="68" viewBox="0 0 82 68" fill="none" xmlns="http://www.w3.org/2000/svg">
<path d="M0 59.5271C9.01898 60.3177 16.918 58.1685 24.2254 52.9432C22.6421 52.541 21.3013 52.2689 20.0019 51.8588C15.1059 50.3148 11.7045 47.0772 9.58487 42.4572C8.93023 41.0316 9.07417 40.9173 10.6299 40.9429C12.2369 40.9685 13.8735 41.2032 15.7842 40.4815C12.8561 39.6415 10.5195 38.348 8.53784 36.4985C5.35733 33.5329 3.4723 29.8851 3.14104 25.5136C3.00696 23.7489 3.23176 23.6266 4.80525 24.3444C6.34522 25.0463 7.93843 25.5057 9.87079 25.5176C8.66602 24.1354 7.36268 23.1317 6.43396 21.785C2.74671 16.4355 2.12164 10.7745 4.66526 4.78812C5.34355 3.19491 5.61368 3.13377 6.76324 4.4253C12.4065 10.7646 19.1737 15.42 27.2028 18.2101C30.7442 19.4405 34.3861 20.2411 38.1128 20.6216C40.0274 20.8168 40.191 20.6118 39.9702 18.7385C39.1854 12.0621 42.9634 5.07797 49.0838 1.89155C55.2161 -1.30078 63.0757 -0.393758 68.0623 4.16897C69.0344 5.05825 69.9612 5.25148 71.1817 4.91628C73.7864 4.20051 76.2985 3.27771 78.6883 2.01577C79.0551 1.82056 79.3804 1.41832 80.0784 1.67465C78.9348 5.24754 76.6731 7.97059 73.8081 10.319C76.6278 9.98379 79.2641 9.17141 81.993 8.10467C82.0542 9.04522 81.5001 9.52042 81.1077 10.0272C79.4277 12.2021 77.5604 14.2113 75.3441 15.842C74.307 16.6051 73.9541 17.4825 73.9738 18.7484C74.1453 29.9797 70.5409 39.9984 63.825 48.8774C55.8451 59.4265 45.1284 65.3774 32.0298 66.9686C21.2125 68.2818 11.0302 66.2331 1.55376 60.8028C1.2087 60.6056 0.873504 60.3868 0.548158 60.16C0.433794 60.0851 0.358866 59.949 0 59.5271Z" fill="#E5E5E5"/>
</svg>
