<svg width="24" height="30" viewBox="0 0 24 30" fill="none" xmlns="http://www.w3.org/2000/svg">
<path d="M22.605 15.015C22.8003 15.0426 22.9882 15.1084 23.158 15.2087C23.3279 15.309 23.4762 15.4419 23.5947 15.5996C23.7131 15.7573 23.7992 15.9368 23.8482 16.1279C23.8972 16.3189 23.908 16.5178 23.88 16.713C23.504 19.314 22.285 21.7199 20.4099 23.5613C18.5349 25.4028 16.1074 26.5781 13.5 26.907V28.5C13.5 28.8978 13.342 29.2794 13.0607 29.5607C12.7794 29.842 12.3978 30 12 30C11.6022 30 11.2206 29.842 10.9393 29.5607C10.658 29.2794 10.5 28.8978 10.5 28.5V26.907C7.89295 26.5776 5.46596 25.402 3.59125 23.5606C1.71654 21.7192 0.497639 19.3137 0.121497 16.713C0.0650057 16.3192 0.167283 15.919 0.40583 15.6006C0.644376 15.2821 0.99965 15.0715 1.3935 15.015C1.78734 14.9585 2.1875 15.0608 2.50594 15.2993C2.82437 15.5379 3.03501 15.8932 3.0915 16.287C3.40172 18.4284 4.47291 20.3864 6.10891 21.8024C7.74492 23.2185 9.83626 23.9979 12 23.9979C14.1637 23.9979 16.2551 23.2185 17.8911 21.8024C19.5271 20.3864 20.5983 18.4284 20.9085 16.287C20.9364 16.092 21.0025 15.9044 21.103 15.7349C21.2035 15.5654 21.3363 15.4174 21.494 15.2993C21.6517 15.1811 21.8311 15.0952 22.022 15.0465C22.2129 14.9977 22.41 14.987 22.605 15.015ZM12 0C13.9891 0 15.8968 0.790176 17.3033 2.1967C18.7098 3.60322 19.5 5.51088 19.5 7.5V15C19.5 16.9891 18.7098 18.8968 17.3033 20.3033C15.8968 21.7098 13.9891 22.5 12 22.5C10.0109 22.5 8.10322 21.7098 6.6967 20.3033C5.29017 18.8968 4.5 16.9891 4.5 15V7.5C4.5 5.51088 5.29017 3.60322 6.6967 2.1967C8.10322 0.790176 10.0109 0 12 0Z" fill="white"/>
</svg>
