<?xml version="1.0" encoding="utf-8"?>
<!-- Generator: Adobe Illustrator 27.0.1, SVG Export Plug-In . SVG Version: 6.00 Build 0)  -->
<svg version="1.1" id="Layer_1" xmlns="http://www.w3.org/2000/svg" xmlns:xlink="http://www.w3.org/1999/xlink" x="0px" y="0px"
	 viewBox="0 0 1103 673" style="enable-background:new 0 0 1103 673;" xml:space="preserve">
<style type="text/css">
	.st0{fill-rule:evenodd;clip-rule:evenodd;}
</style>
<path class="st0" d="M407.5,538.6H297V232.2h-2.4l-89.4,53.5v-94.2l98.6-60.3H0v407.5h407.5V538.6z"/>
<path d="M408.3,539V132.1h175.4c19.9,0,38.2,4,55,12c16.8,8,31.3,18.9,43.6,32.7c12.2,13.4,21.6,28.5,28.1,45.3
	c6.9,16.8,10.3,33.8,10.3,51c0,24.1-5.7,46.8-17.2,68.2c-11.1,21.4-26.7,39-47,52.7c-19.9,13.4-43.2,20.1-69.9,20.1h-66.5V539H408.3
	z M520.1,316.6h59c4.6,0,9-1.3,13.2-4c4.2-2.7,7.6-7.3,10.3-13.8c3.1-6.5,4.6-15.1,4.6-25.8c0-11.5-1.7-20.2-5.2-26.4
	c-3.1-6.5-7.1-10.9-12-13.2c-4.6-2.7-9.2-4-13.8-4h-56.2V316.6z M833.9,132.1l73.9,128.4l73.9-128.4h120.4L974.3,338.4L1097.6,539
	H977.2l-69.3-122.6L838.5,539H717.6l123.2-200.6L713,132.1H833.9z"/>
</svg>
