<svg width="36" height="35" viewBox="0 0 36 35" fill="none" xmlns="http://www.w3.org/2000/svg">
<g clip-path="url(#clip0_9_108)">
<path d="M-49.3554 20.4999L-41.5751 29.9999H-47.7188L-54.6429 21.2751V29.9999H-59.6787V5.00008H-54.6429V19.7001L-48.2475 12.4999H-41.827L-49.3554 20.4999V20.4999ZM-69.4983 12.0001C-70.6009 12.0165 -71.683 12.2979 -72.6521 12.8204C-73.6211 13.3429 -74.4482 14.0907 -75.0626 15V12.4999H-79.8213V29.9999H-74.7858V21.825C-74.8519 21.2316 -74.7943 20.6311 -74.6166 20.0607C-74.4389 19.4904 -74.1449 18.9625 -73.7528 18.5099C-73.3607 18.0573 -72.879 17.6897 -72.3377 17.4299C-71.7964 17.1701 -71.207 17.0237 -70.6062 16.9999C-67.6854 16.9999 -67.2321 19.8499 -67.2321 21.825V29.9999H-62.1963V20.7249C-62.1963 15.225 -64.0345 12.0001 -69.3975 12.0001H-69.4983V12.0001ZM-24.4287 21.65C-24.4094 22.0164 -24.4094 22.3836 -24.4287 22.75H-37.6474V22.925C-37.4328 23.9675 -36.8511 24.9 -36.0067 25.5552C-35.1622 26.2103 -34.1103 26.5453 -33.0396 26.4999C-32.1902 26.5366 -31.3421 26.4028 -30.5461 26.1064C-29.75 25.81 -29.0224 25.3572 -28.4067 24.7751L-25.058 27.2751C-26.1193 28.3505 -27.3959 29.1931 -28.8054 29.7486C-30.2149 30.304 -31.7259 30.56 -33.2412 30.5C-34.496 30.5788 -35.7533 30.3892 -36.928 29.9442C-38.1028 29.4991 -39.1676 28.8089 -40.0507 27.9203C-40.9338 27.0316 -41.6145 25.9651 -42.0469 24.7928C-42.4793 23.6205 -42.6533 22.3697 -42.5571 21.125C-42.5829 19.8962 -42.3535 18.6752 -41.8832 17.5383C-41.4129 16.4014 -40.7118 15.3728 -39.8236 14.5168C-38.9354 13.6607 -37.8792 12.9954 -36.7207 12.5624C-35.5622 12.1294 -34.3263 11.938 -33.09 12.0001C-28.3563 12.0001 -24.4287 15.3251 -24.4287 21.65ZM-29.1117 19.4999C-29.1302 19.0047 -29.2501 18.5185 -29.464 18.0708C-29.6779 17.6231 -29.9814 17.2233 -30.356 16.8958C-30.7305 16.5684 -31.1683 16.3201 -31.6427 16.166C-32.117 16.012 -32.618 15.9555 -33.1151 15.9999C-35.3292 15.7623 -37.3343 17.3108 -37.6474 19.4999H-29.1117ZM-99.9642 5.00008H-105V29.9999H-89.8929V25.0004H-99.9642V5.00008ZM-9.32131 5.00008H-4.2858V29.9999H-9.04455V28.2499C-9.64882 28.9891 -10.419 29.5776 -11.2933 29.9684C-12.1677 30.3591 -13.1221 30.5412 -14.0801 30.5C-15.2504 30.4702 -16.4023 30.203 -17.4648 29.7149C-18.5274 29.2268 -19.4781 28.5281 -20.2587 27.6618C-21.0393 26.7954 -21.6332 25.7797 -22.0039 24.677C-22.3745 23.5744 -22.5142 22.4081 -22.4142 21.2499C-22.5331 20.0901 -22.4075 18.9184 -22.0455 17.8094C-21.6834 16.7003 -21.0929 15.6783 -20.3113 14.8082C-19.5298 13.9382 -18.5744 13.2392 -17.506 12.7557C-16.4375 12.2723 -15.2795 12.0149 -14.1054 12.0001C-13.2309 11.962 -12.3576 12.0972 -11.5362 12.3976C-10.7148 12.6981 -9.96193 13.1578 -9.32131 13.7501V5.00008V5.00008ZM-8.94375 21.2499C-8.86457 20.6726 -8.91098 20.0852 -9.07985 19.5272C-9.24872 18.9693 -9.53613 18.4538 -9.92269 18.0154C-10.3093 17.5771 -10.786 17.2262 -11.3207 16.9863C-11.8555 16.7465 -12.4358 16.6233 -13.0226 16.625C-15.4314 16.7986 -17.2567 18.8554 -17.1267 21.2499C-17.2567 23.6444 -15.4314 25.7015 -13.0226 25.8751C-12.4358 25.8769 -11.8554 25.7536 -11.3206 25.5138C-10.7859 25.2739 -10.3091 24.9229 -9.92257 24.4846C-9.53601 24.0462 -9.24861 23.5307 -9.07976 22.9727C-8.91091 22.4147 -8.86453 21.8272 -8.94375 21.2499V21.2499ZM-84.8571 4.49996C-85.6669 4.51136 -86.4421 4.82742 -87.0263 5.38432C-87.6105 5.94123 -87.9601 6.69749 -88.0045 7.50039C-88.0045 9.22605 -86.5954 10.6252 -84.8571 10.6252C-83.1188 10.6252 -81.7102 9.22578 -81.7102 7.50039C-81.7547 6.69758 -82.1043 5.94143 -82.6884 5.38459C-83.2725 4.82775 -84.0477 4.51169 -84.8574 4.50023L-84.8571 4.49996ZM-87.375 29.9999H-82.3392V12.4999H-87.375V29.9999ZM36 2.50004V32.5C36 33.163 35.7347 33.7989 35.2625 34.2678C34.7903 34.7366 34.1499 35 33.4821 35H3.2679C2.60011 35 1.95967 34.7366 1.48747 34.2678C1.01528 33.7989 0.75 33.163 0.75 32.5V2.50004C0.75 1.83699 1.01528 1.20109 1.48747 0.732244C1.95967 0.263396 2.60011 0 3.2679 0L33.4821 0C34.1499 0 34.7903 0.263396 35.2625 0.732244C35.7347 1.20109 36 1.83699 36 2.50004V2.50004ZM10.8213 12.4999H5.7858V29.9999H10.8213V12.4999ZM11.4509 7.50012C11.4509 5.77418 10.0417 4.375 8.30369 4.375C6.56542 4.375 5.15625 5.77418 5.15625 7.50012C5.15625 9.22578 6.56542 10.625 8.30369 10.625C10.0417 10.625 11.4509 9.22578 11.4509 7.50012V7.50012ZM30.9642 20.7249C30.9642 15.225 29.1263 12.0001 23.7633 12.0001C22.6436 12.0002 21.5411 12.2739 20.5531 12.797C19.565 13.3202 18.7219 14.0768 18.098 15V12.4999H13.3392V29.9999H18.375V21.825C18.3089 21.2316 18.3665 20.6311 18.5442 20.0607C18.7219 19.4904 19.0159 18.9625 19.408 18.5099C19.8001 18.0573 20.2818 17.6897 20.8231 17.4299C21.3644 17.1701 21.9538 17.0237 22.5546 16.9999C25.4754 16.9999 25.9287 19.8499 25.9287 21.825V29.9999H30.9642V20.7249Z" fill="#828091"/>
</g>
<defs>
<clipPath id="clip0_9_108">
<rect width="36" height="35" fill="white"/>
</clipPath>
</defs>
</svg>
