<svg width="1512" height="650" viewBox="0 0 1512 650" fill="none" xmlns="http://www.w3.org/2000/svg">
<path d="M28.1588 193.097C28.1588 179.752 15.7505 169.024 0.5 168.794V0.50047C123.967 0.732643 223.842 86.9397 223.842 193.097V544.903C223.842 558.394 236.521 569.21 252 569.21C267.479 569.21 280.159 558.394 280.159 544.903V193.097C280.159 86.7964 380.303 0.5 504.002 0.5C627.697 0.5 727.841 86.7964 727.841 193.097V544.903C727.841 558.394 740.523 569.21 756 569.21C771.477 569.21 784.159 558.394 784.159 544.903V193.097C784.159 86.7964 884.302 0.5 1008 0.5C1131.7 0.5 1231.84 86.7964 1231.84 193.097V544.903C1231.84 558.394 1244.52 569.21 1260 569.21C1275.48 569.21 1288.16 558.394 1288.16 544.903V193.097C1288.16 86.9397 1388.03 0.732647 1511.5 0.50047V168.794C1496.25 169.024 1483.84 179.751 1483.84 193.097V544.903C1483.84 651.203 1383.7 737.5 1260 737.5C1136.3 737.5 1036.16 651.203 1036.16 544.903V193.097C1036.16 179.606 1023.48 168.79 1008 168.79C992.521 168.79 979.839 179.606 979.839 193.097V544.903C979.839 651.203 879.696 737.5 756 737.5C632.304 737.5 532.161 651.203 532.161 544.903V193.097C532.161 179.606 519.478 168.79 504.002 168.79C488.52 168.79 475.843 179.606 475.843 193.097V544.903C475.843 651.203 375.697 737.5 252 737.5C128.303 737.5 28.1588 651.203 28.1588 544.903V193.097Z" fill="#2F6AD8" stroke="black"/>
</svg>
